Sometimes the best sex in the world...just isn't worth it.

Format : AVI
Format/Info : Audio Video Interleave
File size : 700 MiB
Duration : 1h 33mn
Overall bit rate : 1 042 Kbps
Writing application : VirtualDubMod 1.5.4.1 (build 2178/release)
Writing library : VirtualDubMod build 2178/release

Video
ID : 0
Format : MPEG-4 Visual
Format profile : Advanced Simple@L5
Format settings, BVOP : Yes
Format settings, QPel : No
Format settings, GMC : No warppoints
Format settings, Matrix : Custom
Codec ID : XVID
Codec ID/Hint : XviD
Duration : 1h 33mn
Bit rate : 939 Kbps
Width : 640 pixels
Height : 368 pixels
Display aspect ratio : 16:9
Frame rate : 25.000 fps
Color space : YUV
Chroma subsampling : 4:2:0
Bit depth : 8 bits
Scan type : Progressive
Compression mode : Lossy
Bits/(Pixel*Frame) : 0.159
Stream size : 631 MiB (90%)
Writing library : XviD 1.2.1 (UTC 2008-12-04)

Audio
ID : 1
Format : MPEG Audio
Format version : Version 1
Format profile : Layer 3
Mode : Joint stereo
Mode extension : Intensity Stereo + MS Stereo
Codec ID : 55
Codec ID/Hint : MP3
Duration : 1h 33mn
Bit rate mode : Constant
Bit rate : 96.0 Kbps
Channel(s) : 2 channels
Sampling rate : 48.0 KHz
Compression mode : Lossy
Stream size : 64.5 MiB (9%)
Alignment : Split accross interleaves
Interleave, duration : 80 ms (2.00 video frames)
Interleave, preload duration : 500 ms

Please seed & thank you for downloading